<mxfile host="65bd71144e">
    <diagram id="ovfJAyiThDLHzYhWFUpP" name="Social Engineering Attacks">
        <mxGraphModel dx="661" dy="468" grid="0" gridSize="10" guides="1" tooltips="1" connect="1" arrows="1" fold="1" page="1" pageScale="1" pageWidth="1169" pageHeight="827" background="#ffffff" math="0" shadow="0">
            <root>
                <mxCell id="0"/>
                <mxCell id="1" parent="0"/>
                <mxCell id="25" style="edgeStyle=none;html=1;exitX=0.5;exitY=1;exitDx=0;exitDy=0;entryX=0.5;entryY=0;entryDx=0;entryDy=0;fontFamily=CMU;fontSource=https%3A%2F%2Ffonts.googleapis.com%2Fcss%3Ffamily%3DCMU;labelBackgroundColor=none;fontColor=#00005A;strokeColor=#00005A;" edge="1" parent="1" source="2" target="5">
                    <mxGeometry relative="1" as="geometry">
                        <Array as="points">
                            <mxPoint x="370" y="160"/>
                            <mxPoint x="310" y="160"/>
                        </Array>
                    </mxGeometry>
                </mxCell>
                <mxCell id="26" style="edgeStyle=none;html=1;exitX=0.5;exitY=1;exitDx=0;exitDy=0;entryX=0.5;entryY=0;entryDx=0;entryDy=0;fontFamily=CMU;fontSource=https%3A%2F%2Ffonts.googleapis.com%2Fcss%3Ffamily%3DCMU;labelBackgroundColor=none;fontColor=#00005A;strokeColor=#00005A;" edge="1" parent="1" source="2" target="6">
                    <mxGeometry relative="1" as="geometry">
                        <Array as="points">
                            <mxPoint x="370" y="160"/>
                            <mxPoint x="430" y="160"/>
                        </Array>
                    </mxGeometry>
                </mxCell>
                <mxCell id="27" style="edgeStyle=none;html=1;exitX=0.5;exitY=1;exitDx=0;exitDy=0;entryX=0.5;entryY=0;entryDx=0;entryDy=0;fontFamily=CMU;fontSource=https%3A%2F%2Ffonts.googleapis.com%2Fcss%3Ffamily%3DCMU;labelBackgroundColor=none;fontColor=#00005A;strokeColor=#00005A;" edge="1" parent="1" source="2" target="7">
                    <mxGeometry relative="1" as="geometry">
                        <Array as="points">
                            <mxPoint x="370" y="160"/>
                            <mxPoint x="550" y="160"/>
                        </Array>
                    </mxGeometry>
                </mxCell>
                <mxCell id="2" value="Social Engineering Attacks" style="rounded=0;whiteSpace=wrap;html=1;fontFamily=CMU;fontSource=https%3A%2F%2Ffonts.googleapis.com%2Fcss%3Ffamily%3DCMU;labelBackgroundColor=none;fontColor=#00005A;strokeColor=#00005A;fillColor=none;shadow=1;" vertex="1" parent="1">
                    <mxGeometry x="310" y="40" width="120" height="80" as="geometry"/>
                </mxCell>
                <mxCell id="3" value="Phishing" style="rounded=0;whiteSpace=wrap;html=1;fontFamily=CMU;fontSource=https%3A%2F%2Ffonts.googleapis.com%2Fcss%3Ffamily%3DCMU;labelBackgroundColor=none;fontColor=#00005A;strokeColor=#00005A;fillColor=none;shadow=1;" vertex="1" parent="1">
                    <mxGeometry x="140" y="200" width="100" height="60" as="geometry"/>
                </mxCell>
                <mxCell id="5" value="Baiting" style="rounded=0;whiteSpace=wrap;html=1;fontFamily=CMU;fontSource=https%3A%2F%2Ffonts.googleapis.com%2Fcss%3Ffamily%3DCMU;labelBackgroundColor=none;fontColor=#00005A;strokeColor=#00005A;fillColor=none;shadow=1;" vertex="1" parent="1">
                    <mxGeometry x="260" y="200" width="100" height="60" as="geometry"/>
                </mxCell>
                <mxCell id="6" value="Pretexting" style="rounded=0;whiteSpace=wrap;html=1;fontFamily=CMU;fontSource=https%3A%2F%2Ffonts.googleapis.com%2Fcss%3Ffamily%3DCMU;labelBackgroundColor=none;fontColor=#00005A;strokeColor=#00005A;fillColor=none;shadow=1;" vertex="1" parent="1">
                    <mxGeometry x="380" y="200" width="100" height="60" as="geometry"/>
                </mxCell>
                <mxCell id="7" value="Summary" style="rounded=0;whiteSpace=wrap;html=1;fontFamily=CMU;fontSource=https%3A%2F%2Ffonts.googleapis.com%2Fcss%3Ffamily%3DCMU;labelBackgroundColor=none;fontColor=#00005A;strokeColor=#00005A;fillColor=none;shadow=1;" vertex="1" parent="1">
                    <mxGeometry x="500" y="200" width="100" height="60" as="geometry"/>
                </mxCell>
                <mxCell id="8" value="Ransomware" style="rounded=0;whiteSpace=wrap;html=1;fontFamily=CMU;fontSource=https%3A%2F%2Ffonts.googleapis.com%2Fcss%3Ffamily%3DCMU;labelBackgroundColor=none;fontColor=#00005A;strokeColor=#00005A;fillColor=none;shadow=1;" vertex="1" parent="1">
                    <mxGeometry x="140" y="280" width="100" height="60" as="geometry"/>
                </mxCell>
                <mxCell id="9" value="Impersonation on Help Desk" style="rounded=0;whiteSpace=wrap;html=1;fontFamily=CMU;fontSource=https%3A%2F%2Ffonts.googleapis.com%2Fcss%3Ffamily%3DCMU;labelBackgroundColor=none;fontColor=#00005A;strokeColor=#00005A;fillColor=none;shadow=1;" vertex="1" parent="1">
                    <mxGeometry x="260" y="280" width="100" height="60" as="geometry"/>
                </mxCell>
                <mxCell id="10" value="Diversion Theft" style="rounded=0;whiteSpace=wrap;html=1;fontFamily=CMU;fontSource=https%3A%2F%2Ffonts.googleapis.com%2Fcss%3Ffamily%3DCMU;labelBackgroundColor=none;fontColor=#00005A;strokeColor=#00005A;fillColor=none;shadow=1;" vertex="1" parent="1">
                    <mxGeometry x="380" y="280" width="100" height="60" as="geometry"/>
                </mxCell>
                <mxCell id="11" value="Dumpster Diving" style="rounded=0;whiteSpace=wrap;html=1;fontFamily=CMU;fontSource=https%3A%2F%2Ffonts.googleapis.com%2Fcss%3Ffamily%3DCMU;labelBackgroundColor=none;fontColor=#00005A;strokeColor=#00005A;fillColor=none;shadow=1;" vertex="1" parent="1">
                    <mxGeometry x="500" y="280" width="100" height="60" as="geometry"/>
                </mxCell>
                <mxCell id="12" value="Shoulder Surfing" style="rounded=0;whiteSpace=wrap;html=1;fontFamily=CMU;fontSource=https%3A%2F%2Ffonts.googleapis.com%2Fcss%3Ffamily%3DCMU;labelBackgroundColor=none;fontColor=#00005A;strokeColor=#00005A;fillColor=none;shadow=1;" vertex="1" parent="1">
                    <mxGeometry x="140" y="360" width="100" height="60" as="geometry"/>
                </mxCell>
                <mxCell id="13" value="Quid Pro Quo" style="rounded=0;whiteSpace=wrap;html=1;fontFamily=CMU;fontSource=https%3A%2F%2Ffonts.googleapis.com%2Fcss%3Ffamily%3DCMU;labelBackgroundColor=none;fontColor=#00005A;strokeColor=#00005A;fillColor=none;shadow=1;" vertex="1" parent="1">
                    <mxGeometry x="260" y="360" width="100" height="60" as="geometry"/>
                </mxCell>
                <mxCell id="14" value="Pop-up windows" style="rounded=0;whiteSpace=wrap;html=1;fontFamily=CMU;fontSource=https%3A%2F%2Ffonts.googleapis.com%2Fcss%3Ffamily%3DCMU;labelBackgroundColor=none;fontColor=#00005A;strokeColor=#00005A;fillColor=none;shadow=1;" vertex="1" parent="1">
                    <mxGeometry x="380" y="360" width="100" height="60" as="geometry"/>
                </mxCell>
                <mxCell id="15" value="Robocalls" style="rounded=0;whiteSpace=wrap;html=1;fontFamily=CMU;fontSource=https%3A%2F%2Ffonts.googleapis.com%2Fcss%3Ffamily%3DCMU;labelBackgroundColor=none;fontColor=#00005A;strokeColor=#00005A;fillColor=none;shadow=1;" vertex="1" parent="1">
                    <mxGeometry x="500" y="360" width="100" height="60" as="geometry"/>
                </mxCell>
                <mxCell id="16" value="Reverse Social Engineering" style="rounded=0;whiteSpace=wrap;html=1;fontFamily=CMU;fontSource=https%3A%2F%2Ffonts.googleapis.com%2Fcss%3Ffamily%3DCMU;labelBackgroundColor=none;fontColor=#00005A;strokeColor=#00005A;fillColor=none;shadow=1;" vertex="1" parent="1">
                    <mxGeometry x="140" y="440" width="100" height="60" as="geometry"/>
                </mxCell>
                <mxCell id="17" value="Online Social Engineering" style="rounded=0;whiteSpace=wrap;html=1;fontFamily=CMU;fontSource=https%3A%2F%2Ffonts.googleapis.com%2Fcss%3Ffamily%3DCMU;labelBackgroundColor=none;fontColor=#00005A;strokeColor=#00005A;fillColor=none;shadow=1;" vertex="1" parent="1">
                    <mxGeometry x="260" y="440" width="100" height="60" as="geometry"/>
                </mxCell>
                <mxCell id="18" value="Phone Social Engineering" style="rounded=0;whiteSpace=wrap;html=1;fontFamily=CMU;fontSource=https%3A%2F%2Ffonts.googleapis.com%2Fcss%3Ffamily%3DCMU;labelBackgroundColor=none;fontColor=#00005A;strokeColor=#00005A;fillColor=none;shadow=1;" vertex="1" parent="1">
                    <mxGeometry x="380" y="440" width="100" height="60" as="geometry"/>
                </mxCell>
                <mxCell id="19" value="Stealing Important Documents" style="rounded=0;whiteSpace=wrap;html=1;fontFamily=CMU;fontSource=https%3A%2F%2Ffonts.googleapis.com%2Fcss%3Ffamily%3DCMU;labelBackgroundColor=none;fontColor=#00005A;strokeColor=#00005A;fillColor=none;shadow=1;" vertex="1" parent="1">
                    <mxGeometry x="500" y="440" width="100" height="60" as="geometry"/>
                </mxCell>
                <mxCell id="20" value="Fake Software" style="rounded=0;whiteSpace=wrap;html=1;fontFamily=CMU;fontSource=https%3A%2F%2Ffonts.googleapis.com%2Fcss%3Ffamily%3DCMU;labelBackgroundColor=none;fontColor=#00005A;strokeColor=#00005A;fillColor=none;shadow=1;" vertex="1" parent="1">
                    <mxGeometry x="140" y="520" width="100" height="60" as="geometry"/>
                </mxCell>
                <mxCell id="21" value="Pharming" style="rounded=0;whiteSpace=wrap;html=1;fontFamily=CMU;fontSource=https%3A%2F%2Ffonts.googleapis.com%2Fcss%3Ffamily%3DCMU;labelBackgroundColor=none;fontColor=#00005A;strokeColor=#00005A;fillColor=none;shadow=1;" vertex="1" parent="1">
                    <mxGeometry x="260" y="520" width="100" height="60" as="geometry"/>
                </mxCell>
                <mxCell id="22" value="SMSishing" style="rounded=0;whiteSpace=wrap;html=1;fontFamily=CMU;fontSource=https%3A%2F%2Ffonts.googleapis.com%2Fcss%3Ffamily%3DCMU;labelBackgroundColor=none;fontColor=#00005A;strokeColor=#00005A;fillColor=none;shadow=1;" vertex="1" parent="1">
                    <mxGeometry x="380" y="520" width="100" height="60" as="geometry"/>
                </mxCell>
                <mxCell id="23" value="Whitelisting flow" style="rounded=0;whiteSpace=wrap;html=1;fontFamily=CMU;fontSource=https%3A%2F%2Ffonts.googleapis.com%2Fcss%3Ffamily%3DCMU;labelBackgroundColor=none;fontColor=#00005A;strokeColor=#00005A;fillColor=none;shadow=1;" vertex="1" parent="1">
                    <mxGeometry x="500" y="520" width="100" height="60" as="geometry"/>
                </mxCell>
                <mxCell id="24" value="" style="endArrow=classic;html=1;fontFamily=CMU;fontSource=https%3A%2F%2Ffonts.googleapis.com%2Fcss%3Ffamily%3DCMU;exitX=0.5;exitY=1;exitDx=0;exitDy=0;entryX=0.5;entryY=0;entryDx=0;entryDy=0;labelBackgroundColor=none;fontColor=#00005A;strokeColor=#00005A;" edge="1" parent="1" source="2" target="3">
                    <mxGeometry width="50" height="50" relative="1" as="geometry">
                        <mxPoint x="340" y="360" as="sourcePoint"/>
                        <mxPoint x="390" y="310" as="targetPoint"/>
                        <Array as="points">
                            <mxPoint x="370" y="160"/>
                            <mxPoint x="190" y="160"/>
                        </Array>
                    </mxGeometry>
                </mxCell>
            </root>
        </mxGraphModel>
    </diagram>
    <diagram id="kzJCClmL594VV0oBMoi5" name="Fallible Human Approaches">
        <mxGraphModel dx="447" dy="227" grid="0" gridSize="10" guides="1" tooltips="1" connect="1" arrows="1" fold="1" page="1" pageScale="1" pageWidth="1169" pageHeight="827" background="#ffffff" math="0" shadow="0">
            <root>
                <mxCell id="0"/>
                <mxCell id="1" parent="0"/>
                <mxCell id="2_Zz9oc8hRW9QcAFXlW2-10" style="edgeStyle=none;html=1;exitX=0;exitY=1;exitDx=0;exitDy=0;entryX=0.5;entryY=0;entryDx=0;entryDy=0;labelBackgroundColor=none;strokeColor=#00005A;fontFamily=CMU;fontSource=https%3A%2F%2Ffonts.googleapis.com%2Fcss%3Ffamily%3DCMU;fontColor=#00005A;" edge="1" parent="1" source="2_Zz9oc8hRW9QcAFXlW2-2" target="2_Zz9oc8hRW9QcAFXlW2-3">
                    <mxGeometry relative="1" as="geometry"/>
                </mxCell>
                <mxCell id="2_Zz9oc8hRW9QcAFXlW2-11" style="edgeStyle=none;html=1;exitX=1;exitY=1;exitDx=0;exitDy=0;entryX=0.5;entryY=0;entryDx=0;entryDy=0;labelBackgroundColor=none;strokeColor=#00005A;fontFamily=CMU;fontSource=https%3A%2F%2Ffonts.googleapis.com%2Fcss%3Ffamily%3DCMU;fontColor=#00005A;" edge="1" parent="1" source="2_Zz9oc8hRW9QcAFXlW2-2" target="2_Zz9oc8hRW9QcAFXlW2-4">
                    <mxGeometry relative="1" as="geometry"/>
                </mxCell>
                <mxCell id="2_Zz9oc8hRW9QcAFXlW2-16" style="edgeStyle=none;html=1;exitX=0.5;exitY=1;exitDx=0;exitDy=0;entryX=0.5;entryY=0;entryDx=0;entryDy=0;labelBackgroundColor=none;strokeColor=#00005A;fontFamily=CMU;fontSource=https%3A%2F%2Ffonts.googleapis.com%2Fcss%3Ffamily%3DCMU;fontColor=#00005A;" edge="1" parent="1" source="2_Zz9oc8hRW9QcAFXlW2-2" target="2_Zz9oc8hRW9QcAFXlW2-5">
                    <mxGeometry relative="1" as="geometry"/>
                </mxCell>
                <mxCell id="2_Zz9oc8hRW9QcAFXlW2-2" value="I" style="ellipse;whiteSpace=wrap;html=1;aspect=fixed;shadow=1;labelBackgroundColor=none;strokeColor=#00005A;fontFamily=CMU;fontSource=https%3A%2F%2Ffonts.googleapis.com%2Fcss%3Ffamily%3DCMU;fontColor=#00005A;fillColor=#FFFFFF;" vertex="1" parent="1">
                    <mxGeometry x="240" y="40" width="40" height="40" as="geometry"/>
                </mxCell>
                <mxCell id="2_Zz9oc8hRW9QcAFXlW2-12" style="edgeStyle=none;html=1;exitX=0.5;exitY=1;exitDx=0;exitDy=0;labelBackgroundColor=none;strokeColor=#00005A;fontFamily=CMU;fontSource=https%3A%2F%2Ffonts.googleapis.com%2Fcss%3Ffamily%3DCMU;fontColor=#00005A;" edge="1" parent="1" source="2_Zz9oc8hRW9QcAFXlW2-3" target="2_Zz9oc8hRW9QcAFXlW2-8">
                    <mxGeometry relative="1" as="geometry"/>
                </mxCell>
                <mxCell id="2_Zz9oc8hRW9QcAFXlW2-3" value="" style="ellipse;whiteSpace=wrap;html=1;aspect=fixed;shadow=1;labelBackgroundColor=none;strokeColor=#00005A;fontFamily=CMU;fontSource=https%3A%2F%2Ffonts.googleapis.com%2Fcss%3Ffamily%3DCMU;fontColor=#00005A;fillColor=#00005A;" vertex="1" parent="1">
                    <mxGeometry x="120" y="120" width="40" height="40" as="geometry"/>
                </mxCell>
                <mxCell id="2_Zz9oc8hRW9QcAFXlW2-13" style="edgeStyle=none;html=1;exitX=0;exitY=1;exitDx=0;exitDy=0;entryX=0.5;entryY=0;entryDx=0;entryDy=0;labelBackgroundColor=none;strokeColor=#00005A;fontFamily=CMU;fontSource=https%3A%2F%2Ffonts.googleapis.com%2Fcss%3Ffamily%3DCMU;fontColor=#00005A;" edge="1" parent="1" source="2_Zz9oc8hRW9QcAFXlW2-4" target="2_Zz9oc8hRW9QcAFXlW2-6">
                    <mxGeometry relative="1" as="geometry"/>
                </mxCell>
                <mxCell id="2_Zz9oc8hRW9QcAFXlW2-14" style="edgeStyle=none;html=1;exitX=1;exitY=1;exitDx=0;exitDy=0;entryX=0.5;entryY=0;entryDx=0;entryDy=0;labelBackgroundColor=none;strokeColor=#00005A;fontFamily=CMU;fontSource=https%3A%2F%2Ffonts.googleapis.com%2Fcss%3Ffamily%3DCMU;fontColor=#00005A;" edge="1" parent="1" source="2_Zz9oc8hRW9QcAFXlW2-4" target="2_Zz9oc8hRW9QcAFXlW2-7">
                    <mxGeometry relative="1" as="geometry"/>
                </mxCell>
                <mxCell id="2_Zz9oc8hRW9QcAFXlW2-4" value="" style="ellipse;whiteSpace=wrap;html=1;aspect=fixed;shadow=1;labelBackgroundColor=none;strokeColor=#00005A;fontFamily=CMU;fontSource=https%3A%2F%2Ffonts.googleapis.com%2Fcss%3Ffamily%3DCMU;fontColor=#00005A;fillColor=#00005A;" vertex="1" parent="1">
                    <mxGeometry x="360" y="120" width="40" height="40" as="geometry"/>
                </mxCell>
                <mxCell id="2_Zz9oc8hRW9QcAFXlW2-5" value="" style="ellipse;whiteSpace=wrap;html=1;aspect=fixed;shadow=1;labelBackgroundColor=none;strokeColor=#00005A;fontFamily=CMU;fontSource=https%3A%2F%2Ffonts.googleapis.com%2Fcss%3Ffamily%3DCMU;fontColor=#00005A;fillColor=#00005A;" vertex="1" parent="1">
                    <mxGeometry x="240" y="320" width="40" height="40" as="geometry"/>
                </mxCell>
                <mxCell id="2_Zz9oc8hRW9QcAFXlW2-6" value="" style="ellipse;whiteSpace=wrap;html=1;aspect=fixed;shadow=1;labelBackgroundColor=none;strokeColor=#00005A;fontFamily=CMU;fontSource=https%3A%2F%2Ffonts.googleapis.com%2Fcss%3Ffamily%3DCMU;fontColor=#00005A;fillColor=#00005A;" vertex="1" parent="1">
                    <mxGeometry x="320" y="200" width="40" height="40" as="geometry"/>
                </mxCell>
                <mxCell id="2_Zz9oc8hRW9QcAFXlW2-15" style="edgeStyle=none;html=1;exitX=0.5;exitY=1;exitDx=0;exitDy=0;labelBackgroundColor=none;strokeColor=#00005A;fontFamily=CMU;fontSource=https%3A%2F%2Ffonts.googleapis.com%2Fcss%3Ffamily%3DCMU;fontColor=#00005A;" edge="1" parent="1" source="2_Zz9oc8hRW9QcAFXlW2-7" target="2_Zz9oc8hRW9QcAFXlW2-9">
                    <mxGeometry relative="1" as="geometry"/>
                </mxCell>
                <mxCell id="2_Zz9oc8hRW9QcAFXlW2-7" value="" style="ellipse;whiteSpace=wrap;html=1;aspect=fixed;shadow=1;labelBackgroundColor=none;strokeColor=#00005A;fontFamily=CMU;fontSource=https%3A%2F%2Ffonts.googleapis.com%2Fcss%3Ffamily%3DCMU;fontColor=#00005A;fillColor=#00005A;" vertex="1" parent="1">
                    <mxGeometry x="400" y="200" width="40" height="40" as="geometry"/>
                </mxCell>
                <mxCell id="2_Zz9oc8hRW9QcAFXlW2-8" value="" style="ellipse;whiteSpace=wrap;html=1;aspect=fixed;shadow=1;labelBackgroundColor=none;strokeColor=#00005A;fontFamily=CMU;fontSource=https%3A%2F%2Ffonts.googleapis.com%2Fcss%3Ffamily%3DCMU;fontColor=#00005A;fillColor=#00005A;" vertex="1" parent="1">
                    <mxGeometry x="120" y="240" width="40" height="40" as="geometry"/>
                </mxCell>
                <mxCell id="2_Zz9oc8hRW9QcAFXlW2-9" value="" style="ellipse;whiteSpace=wrap;html=1;aspect=fixed;shadow=1;labelBackgroundColor=none;strokeColor=#00005A;fontFamily=CMU;fontSource=https%3A%2F%2Ffonts.googleapis.com%2Fcss%3Ffamily%3DCMU;fontColor=#00005A;fillColor=#00005A;" vertex="1" parent="1">
                    <mxGeometry x="400" y="280" width="40" height="40" as="geometry"/>
                </mxCell>
                <mxCell id="2_Zz9oc8hRW9QcAFXlW2-24" style="edgeStyle=none;html=1;exitX=1;exitY=1;exitDx=0;exitDy=0;entryX=0;entryY=0;entryDx=0;entryDy=0;labelBackgroundColor=none;strokeColor=#00005A;fontFamily=CMU;fontSource=https%3A%2F%2Ffonts.googleapis.com%2Fcss%3Ffamily%3DCMU;fontColor=#00005A;" edge="1" parent="1" source="2_Zz9oc8hRW9QcAFXlW2-17" target="2_Zz9oc8hRW9QcAFXlW2-19">
                    <mxGeometry relative="1" as="geometry"/>
                </mxCell>
                <mxCell id="2_Zz9oc8hRW9QcAFXlW2-17" value="" style="ellipse;whiteSpace=wrap;html=1;aspect=fixed;shadow=1;labelBackgroundColor=none;strokeColor=#006666;fontFamily=CMU;fontSource=https%3A%2F%2Ffonts.googleapis.com%2Fcss%3Ffamily%3DCMU;fontColor=#00005A;fillColor=#006666;" vertex="1" parent="1">
                    <mxGeometry x="600" y="80" width="40" height="40" as="geometry"/>
                </mxCell>
                <mxCell id="2_Zz9oc8hRW9QcAFXlW2-25" style="edgeStyle=none;html=1;exitX=0;exitY=1;exitDx=0;exitDy=0;entryX=1;entryY=0;entryDx=0;entryDy=0;labelBackgroundColor=none;strokeColor=#00005A;fontFamily=CMU;fontSource=https%3A%2F%2Ffonts.googleapis.com%2Fcss%3Ffamily%3DCMU;fontColor=#00005A;" edge="1" parent="1" source="2_Zz9oc8hRW9QcAFXlW2-18" target="2_Zz9oc8hRW9QcAFXlW2-19">
                    <mxGeometry relative="1" as="geometry"/>
                </mxCell>
                <mxCell id="2_Zz9oc8hRW9QcAFXlW2-18" value="" style="ellipse;whiteSpace=wrap;html=1;aspect=fixed;shadow=1;labelBackgroundColor=none;strokeColor=#006666;fontFamily=CMU;fontSource=https%3A%2F%2Ffonts.googleapis.com%2Fcss%3Ffamily%3DCMU;fontColor=#00005A;fillColor=#006666;" vertex="1" parent="1">
                    <mxGeometry x="720" y="80" width="40" height="40" as="geometry"/>
                </mxCell>
                <mxCell id="2_Zz9oc8hRW9QcAFXlW2-22" style="edgeStyle=none;html=1;exitX=1;exitY=1;exitDx=0;exitDy=0;entryX=0;entryY=0;entryDx=0;entryDy=0;labelBackgroundColor=none;strokeColor=#00005A;fontFamily=CMU;fontSource=https%3A%2F%2Ffonts.googleapis.com%2Fcss%3Ffamily%3DCMU;fontColor=#00005A;" edge="1" parent="1" source="2_Zz9oc8hRW9QcAFXlW2-19" target="2_Zz9oc8hRW9QcAFXlW2-21">
                    <mxGeometry relative="1" as="geometry"/>
                </mxCell>
                <mxCell id="2_Zz9oc8hRW9QcAFXlW2-19" value="" style="ellipse;whiteSpace=wrap;html=1;aspect=fixed;shadow=1;labelBackgroundColor=none;strokeColor=#006666;fontFamily=CMU;fontSource=https%3A%2F%2Ffonts.googleapis.com%2Fcss%3Ffamily%3DCMU;fontColor=#00005A;fillColor=#006666;" vertex="1" parent="1">
                    <mxGeometry x="660" y="160" width="40" height="40" as="geometry"/>
                </mxCell>
                <mxCell id="2_Zz9oc8hRW9QcAFXlW2-23" style="edgeStyle=none;html=1;exitX=0;exitY=1;exitDx=0;exitDy=0;entryX=1;entryY=0;entryDx=0;entryDy=0;labelBackgroundColor=none;strokeColor=#00005A;fontFamily=CMU;fontSource=https%3A%2F%2Ffonts.googleapis.com%2Fcss%3Ffamily%3DCMU;fontColor=#00005A;" edge="1" parent="1" source="2_Zz9oc8hRW9QcAFXlW2-20" target="2_Zz9oc8hRW9QcAFXlW2-21">
                    <mxGeometry relative="1" as="geometry"/>
                </mxCell>
                <mxCell id="2_Zz9oc8hRW9QcAFXlW2-20" value="" style="ellipse;whiteSpace=wrap;html=1;aspect=fixed;shadow=1;labelBackgroundColor=none;strokeColor=#006666;fontFamily=CMU;fontSource=https%3A%2F%2Ffonts.googleapis.com%2Fcss%3Ffamily%3DCMU;fontColor=#00005A;fillColor=#006666;" vertex="1" parent="1">
                    <mxGeometry x="880" y="120" width="40" height="40" as="geometry"/>
                </mxCell>
                <mxCell id="2_Zz9oc8hRW9QcAFXlW2-21" value="U" style="ellipse;whiteSpace=wrap;html=1;aspect=fixed;shadow=1;labelBackgroundColor=none;strokeColor=#00005A;fontFamily=CMU;fontSource=https%3A%2F%2Ffonts.googleapis.com%2Fcss%3Ffamily%3DCMU;fontColor=#00005A;fillColor=#FFFFFF;" vertex="1" parent="1">
                    <mxGeometry x="780" y="280" width="40" height="40" as="geometry"/>
                </mxCell>
            </root>
        </mxGraphModel>
    </diagram>
</mxfile>